<?xml version="1.0" encoding="UTF-8" standalone="no"?>
<svg
        id="a"
        width="32"
        height="32"
        viewBox="0 0 32 32"
        version="1.1"
        sodipodi:docname="PWA.svg"
        inkscape:version="1.3 (0e150ed, 2023-07-21)"
        xmlns:inkscape="http://www.inkscape.org/namespaces/inkscape"
        xmlns:sodipodi="http://sodipodi.sourceforge.net/DTD/sodipodi-0.dtd"
        xmlns="http://www.w3.org/2000/svg"
>
  <defs
     id="defs18" />
  <sodipodi:namedview
     id="namedview18"
     pagecolor="#ffffff"
     bordercolor="#000000"
     borderopacity="0.25"
     inkscape:showpageshadow="2"
     inkscape:pageopacity="0.0"
     inkscape:pagecheckerboard="0"
     inkscape:deskcolor="#d1d1d1"
     inkscape:zoom="22.34375"
     inkscape:cx="15.932867"
     inkscape:cy="15.977622"
     inkscape:window-width="2560"
     inkscape:window-height="1323"
     inkscape:window-x="0"
     inkscape:window-y="25"
     inkscape:window-maximized="1"
     inkscape:current-layer="a" />
  <rect
     style="fill:#ffffff;fill-opacity:1"
     id="rect3"
     width="32"
     height="32"
     x="0"
     y="0"
     inkscape:label="rect3" />
  <rect
     x="8.6209793"
     y="3.8209791"
     width="14.4"
     height="24"
     style="display:inline;fill:#55ffff;stroke-width:0px"
     id="rect1" />
  <rect
     x="-5.6574607"
     y="16.716782"
     width="11.312"
     height="11.312"
     transform="rotate(-45)"
     style="display:inline;fill:#6699ff;stroke-width:0px"
     id="rect2" />
  <polygon
     points="31,28.59 31,16.5 26,16.5 26,31 28.59,31 "
     style="fill:#f5f5f5;stroke-width:0px"
     id="polygon2"
     transform="matrix(0.8,0,0,0.8,3.020979,3.020979)" />
  <polygon
     points="31,15.5 31,3.41 28.59,1 26,1 26,15.5 "
     style="fill:#f5f5f5;stroke-width:0px"
     id="polygon3"
     transform="matrix(0.8,0,0,0.8,3.020979,3.020979)" />
  <polygon
     points="1,28.59 3.41,31 6,31 6,16.5 1,16.5 "
     style="fill:#f5f5f5;stroke-width:0px"
     id="polygon4"
     transform="matrix(0.8,0,0,0.8,3.020979,3.020979)" />
  <polygon
     points="1,3.41 1,15.5 6,15.5 6,1 3.41,1 "
     style="fill:#f5f5f5;stroke-width:0px"
     id="polygon5"
     transform="matrix(0.8,0,0,0.8,3.020979,3.020979)" />
  <polygon
     points="3,32 29,32 29,31 3,31 "
     style="fill:#1d1d1b;stroke-width:0px"
     id="polygon6"
     transform="matrix(0.8,0,0,0.8,3.020979,3.020979)" />
  <path
     d="m 15.820979,8.948979 6.872,6.872 -6.872,6.872 -6.872,-6.872 6.872,-6.872 m 0,-1.128 -8,8 8,8 8,-8 z"
     style="fill:#1d1d1b;stroke-width:0px"
     id="path6" />
  <polygon
     points="6,32 7,32 7,0 6,0 "
     style="fill:#1d1d1b;stroke-width:0px"
     id="polygon7"
     transform="matrix(0.8,0,0,0.8,3.020979,3.020979)" />
  <polygon
     points="25,32 26,32 26,0 25,0 "
     style="fill:#1d1d1b;stroke-width:0px"
     id="polygon8"
     transform="matrix(0.8,0,0,0.8,3.020979,3.020979)" />
  <polygon
     points="15.5,7 16.5,7 16.5,0 15.5,0 "
     style="fill:#1d1d1b;stroke-width:0px"
     id="polygon9"
     transform="matrix(0.8,0,0,0.8,3.020979,3.020979)" />
  <polygon
     points="15.5,32 16.5,32 16.5,25 15.5,25 "
     style="fill:#1d1d1b;stroke-width:0px"
     id="polygon10"
     transform="matrix(0.8,0,0,0.8,3.020979,3.020979)" />
  <polygon
     points="0,16.5 32,16.5 32,15.5 0,15.5 "
     style="fill:#1d1d1b;stroke-width:0px"
     id="polygon11"
     transform="matrix(0.8,0,0,0.8,3.020979,3.020979)" />
  <polygon
     points="3,1 29,1 29,0 3,0 "
     style="fill:#1d1d1b;stroke-width:0px"
     id="polygon12"
     transform="matrix(0.8,0,0,0.8,3.020979,3.020979)" />
  <polygon
     points="0,29 1,29 1,3 0,3 "
     style="fill:#1d1d1b;stroke-width:0px"
     id="polygon13"
     transform="matrix(0.8,0,0,0.8,3.020979,3.020979)" />
  <polygon
     points="31,29 32,29 32,3 31,3 "
     style="fill:#1d1d1b;stroke-width:0px"
     id="polygon14"
     transform="matrix(0.8,0,0,0.8,3.020979,3.020979)" />
  <polygon
     points="31.29,3.71 32,3 29,0 28.29,0.71 "
     style="fill:#1d1d1b;stroke-width:0px"
     id="polygon15"
     transform="matrix(0.8,0,0,0.8,3.020979,3.020979)" />
  <polygon
     points="3,32 3.71,31.29 0.71,28.29 0,29 "
     style="fill:#1d1d1b;stroke-width:0px"
     id="polygon16"
     transform="matrix(0.8,0,0,0.8,3.020979,3.020979)" />
  <polygon
     points="0.71,3.71 3.71,0.71 3,0 0,3 "
     style="fill:#1d1d1b;stroke-width:0px"
     id="polygon17"
     transform="matrix(0.8,0,0,0.8,3.020979,3.020979)" />
  <polygon
     points="29,32 32,29 31.29,28.29 28.29,31.29 "
     style="fill:#1d1d1b;stroke-width:0px"
     id="polygon18"
     transform="matrix(0.8,0,0,0.8,3.020979,3.020979)" />
</svg>
